<?xml version="1.0" encoding="UTF-8" standalone="no"?>
<!DOCTYPE svg PUBLIC "-//W3C//DTD SVG 1.1//EN"
 "http://www.w3.org/Graphics/SVG/1.1/DTD/svg11.dtd">
<!-- Generated by graphviz version 2.36.0 (20140111.2315)
 -->
<!-- Title: deploymentStatus Pages: 1 -->
<svg width="522pt" height="98pt"
 viewBox="0.00 0.00 522.00 98.00" xmlns="http://www.w3.org/2000/svg" xmlns:xlink="http://www.w3.org/1999/xlink">
<g id="graph0" class="graph" transform="scale(1 1) rotate(0) translate(4 94)">
<title>deploymentStatus</title>
<polygon fill="white" stroke="none" points="-4,4 -4,-94 518,-94 518,4 -4,4"/>
<!-- SCHEDULLED -->
<g id="node1" class="node"><title>SCHEDULLED</title>
<ellipse fill="none" stroke="black" cx="68" cy="-41" rx="68.4888" ry="18"/>
<text text-anchor="middle" x="68" y="-37.3" font-family="Times,serif" font-size="14.00">SCHEDULLED</text>
</g>
<!-- DEPLOYED -->
<g id="node2" class="node"><title>DEPLOYED</title>
<ellipse fill="none" stroke="black" cx="268" cy="-72" rx="57.3905" ry="18"/>
<text text-anchor="middle" x="268" y="-68.3" font-family="Times,serif" font-size="14.00">DEPLOYED</text>
</g>
<!-- SCHEDULLED&#45;&gt;DEPLOYED -->
<g id="edge1" class="edge"><title>SCHEDULLED&#45;&gt;DEPLOYED</title>
<path fill="none" stroke="black" d="M127.069,-50.0916C151.941,-53.9857 180.997,-58.5349 206.166,-62.4755"/>
<polygon fill="black" stroke="black" points="205.906,-65.9774 216.327,-64.0664 206.989,-59.0616 205.906,-65.9774"/>
<text text-anchor="middle" x="173" y="-64.8" font-family="Times,serif" font-size="14.00">deploy</text>
</g>
<!-- CANCELED -->
<g id="node4" class="node"><title>CANCELED</title>
<ellipse fill="none" stroke="black" cx="268" cy="-18" rx="57.6901" ry="18"/>
<text text-anchor="middle" x="268" y="-14.3" font-family="Times,serif" font-size="14.00">CANCELED</text>
</g>
<!-- SCHEDULLED&#45;&gt;CANCELED -->
<g id="edge3" class="edge"><title>SCHEDULLED&#45;&gt;CANCELED</title>
<path fill="none" stroke="black" d="M125.143,-31.0713C134.75,-29.5678 144.647,-28.1407 154,-27 169.224,-25.1433 185.65,-23.583 201.137,-22.3107"/>
<polygon fill="black" stroke="black" points="201.464,-25.7959 211.156,-21.516 200.91,-18.8178 201.464,-25.7959"/>
<text text-anchor="middle" x="173" y="-30.8" font-family="Times,serif" font-size="14.00">cancel</text>
</g>
<!-- REMOVED -->
<g id="node3" class="node"><title>REMOVED</title>
<ellipse fill="none" stroke="black" cx="459" cy="-72" rx="54.6905" ry="18"/>
<text text-anchor="middle" x="459" y="-68.3" font-family="Times,serif" font-size="14.00">REMOVED</text>
</g>
<!-- DEPLOYED&#45;&gt;REMOVED -->
<g id="edge2" class="edge"><title>DEPLOYED&#45;&gt;REMOVED</title>
<path fill="none" stroke="black" d="M325.45,-72C347.051,-72 371.836,-72 394.086,-72"/>
<polygon fill="black" stroke="black" points="394.109,-75.5001 404.109,-72 394.109,-68.5001 394.109,-75.5001"/>
<text text-anchor="middle" x="365" y="-75.8" font-family="Times,serif" font-size="14.00">remove</text>
</g>
</g>
</svg>
