<?xml version="1.0" encoding="UTF-8" standalone="no"?>
<!DOCTYPE svg PUBLIC "-//W3C//DTD SVG 1.1//EN"
 "http://www.w3.org/Graphics/SVG/1.1/DTD/svg11.dtd">
<!-- Generated by graphviz version 2.36.0 (20140111.2315)
 -->
<!-- Title: catalogueStatus Pages: 1 -->
<svg width="456pt" height="47pt"
 viewBox="0.00 0.00 456.00 47.23" xmlns="http://www.w3.org/2000/svg" xmlns:xlink="http://www.w3.org/1999/xlink">
<g id="graph0" class="graph" transform="scale(1 1) rotate(0) translate(4 43.2252)">
<title>catalogueStatus</title>
<polygon fill="white" stroke="none" points="-4,4 -4,-43.2252 452,-43.2252 452,4 -4,4"/>
<!-- DRAFT -->
<g id="node1" class="node"><title>DRAFT</title>
<path fill="none" stroke="black" d="M86.5,-3.22518C86.5,-3.22518 123.5,-3.22518 123.5,-3.22518 129.5,-3.22518 135.5,-9.22518 135.5,-15.2252 135.5,-15.2252 135.5,-27.2252 135.5,-27.2252 135.5,-33.2252 129.5,-39.2252 123.5,-39.2252 123.5,-39.2252 86.5,-39.2252 86.5,-39.2252 80.5,-39.2252 74.5,-33.2252 74.5,-27.2252 74.5,-27.2252 74.5,-15.2252 74.5,-15.2252 74.5,-9.22518 80.5,-3.22518 86.5,-3.22518"/>
<text text-anchor="middle" x="105" y="-17.5252" font-family="Times,serif" font-size="14.00">DRAFT</text>
</g>
<!-- PUBLISHED -->
<g id="node2" class="node"><title>PUBLISHED</title>
<path fill="none" stroke="black" d="M224.5,-3.22518C224.5,-3.22518 291.5,-3.22518 291.5,-3.22518 297.5,-3.22518 303.5,-9.22518 303.5,-15.2252 303.5,-15.2252 303.5,-27.2252 303.5,-27.2252 303.5,-33.2252 297.5,-39.2252 291.5,-39.2252 291.5,-39.2252 224.5,-39.2252 224.5,-39.2252 218.5,-39.2252 212.5,-33.2252 212.5,-27.2252 212.5,-27.2252 212.5,-15.2252 212.5,-15.2252 212.5,-9.22518 218.5,-3.22518 224.5,-3.22518"/>
<text text-anchor="middle" x="258" y="-17.5252" font-family="Times,serif" font-size="14.00">PUBLISHED</text>
</g>
<!-- DRAFT&#45;&gt;PUBLISHED -->
<g id="edge2" class="edge"><title>DRAFT&#45;&gt;PUBLISHED</title>
<path fill="none" stroke="black" d="M135.833,-21.2252C154.764,-21.2252 179.832,-21.2252 202.253,-21.2252"/>
<polygon fill="black" stroke="black" points="202.337,-24.7253 212.337,-21.2252 202.337,-17.7253 202.337,-24.7253"/>
<text text-anchor="middle" x="174" y="-25.0252" font-family="Times,serif" font-size="14.00">publish</text>
</g>
<!-- HIDDEN -->
<g id="node3" class="node"><title>HIDDEN</title>
<path fill="none" stroke="black" d="M392,-3.22518C392,-3.22518 436,-3.22518 436,-3.22518 442,-3.22518 448,-9.22518 448,-15.2252 448,-15.2252 448,-27.2252 448,-27.2252 448,-33.2252 442,-39.2252 436,-39.2252 436,-39.2252 392,-39.2252 392,-39.2252 386,-39.2252 380,-33.2252 380,-27.2252 380,-27.2252 380,-15.2252 380,-15.2252 380,-9.22518 386,-3.22518 392,-3.22518"/>
<text text-anchor="middle" x="414" y="-17.5252" font-family="Times,serif" font-size="14.00">HIDDEN</text>
</g>
<!-- PUBLISHED&#45;&gt;HIDDEN -->
<g id="edge3" class="edge"><title>PUBLISHED&#45;&gt;HIDDEN</title>
<path fill="none" stroke="black" d="M303.543,-21.2252C324.365,-21.2252 349.063,-21.2252 369.724,-21.2252"/>
<polygon fill="black" stroke="black" points="369.812,-24.7253 379.812,-21.2252 369.812,-17.7253 369.812,-24.7253"/>
<text text-anchor="middle" x="342" y="-25.0252" font-family="Times,serif" font-size="14.00">hide</text>
</g>
<!-- HIDDEN&#45;&gt;PUBLISHED -->
<g id="edge4" class="edge"><title>HIDDEN&#45;&gt;PUBLISHED</title>
<path fill="none" stroke="black" d="M379.735,-6.91115C373.922,-4.96782 367.858,-3.28099 362,-2.22518 344.504,0.928001 339.587,0.369183 322,-2.22518 319.192,-2.63937 316.336,-3.1521 313.467,-3.74036"/>
<polygon fill="black" stroke="black" points="312.67,-0.332209 303.718,-5.99792 314.25,-7.15178 312.67,-0.332209"/>
<text text-anchor="middle" x="342" y="-6.02518" font-family="Times,serif" font-size="14.00">publish</text>
</g>
<!-- i -->
<g id="node4" class="node"><title>i</title>
<ellipse fill="none" stroke="black" cx="18" cy="-21.2252" rx="18" ry="18"/>
</g>
<!-- i&#45;&gt;DRAFT -->
<g id="edge1" class="edge"><title>i&#45;&gt;DRAFT</title>
<path fill="none" stroke="black" d="M36.201,-21.2252C44.3379,-21.2252 54.4199,-21.2252 64.2994,-21.2252"/>
<polygon fill="black" stroke="black" points="64.4315,-24.7253 74.4314,-21.2252 64.4314,-17.7253 64.4315,-24.7253"/>
</g>
</g>
</svg>
