<?xml version="1.0" encoding="UTF-8" standalone="no"?>
<!DOCTYPE svg PUBLIC "-//W3C//DTD SVG 1.1//EN"
 "http://www.w3.org/Graphics/SVG/1.1/DTD/svg11.dtd">
<!-- Generated by graphviz version 2.36.0 (20140111.2315)
 -->
<!-- Title: deploymentStatus Pages: 1 -->
<svg width="514pt" height="100pt"
 viewBox="0.00 0.00 514.00 100.00" xmlns="http://www.w3.org/2000/svg" xmlns:xlink="http://www.w3.org/1999/xlink">
<g id="graph0" class="graph" transform="scale(1 1) rotate(0) translate(4 96)">
<title>deploymentStatus</title>
<polygon fill="white" stroke="none" points="-4,4 -4,-96 510,-96 510,4 -4,4"/>
<!-- SCHEDULLED -->
<g id="node1" class="node"><title>SCHEDULLED</title>
<path fill="none" stroke="black" d="M86.5,-19C86.5,-19 167.5,-19 167.5,-19 173.5,-19 179.5,-25 179.5,-31 179.5,-31 179.5,-43 179.5,-43 179.5,-49 173.5,-55 167.5,-55 167.5,-55 86.5,-55 86.5,-55 80.5,-55 74.5,-49 74.5,-43 74.5,-43 74.5,-31 74.5,-31 74.5,-25 80.5,-19 86.5,-19"/>
<text text-anchor="middle" x="127" y="-33.3" font-family="Times,serif" font-size="14.00">SCHEDULLED</text>
</g>
<!-- DEPLOYED -->
<g id="node2" class="node"><title>DEPLOYED</title>
<path fill="none" stroke="black" d="M267,-55C267,-55 331,-55 331,-55 337,-55 343,-61 343,-67 343,-67 343,-79 343,-79 343,-85 337,-91 331,-91 331,-91 267,-91 267,-91 261,-91 255,-85 255,-79 255,-79 255,-67 255,-67 255,-61 261,-55 267,-55"/>
<text text-anchor="middle" x="299" y="-69.3" font-family="Times,serif" font-size="14.00">DEPLOYED</text>
</g>
<!-- SCHEDULLED&#45;&gt;DEPLOYED -->
<g id="edge2" class="edge"><title>SCHEDULLED&#45;&gt;DEPLOYED</title>
<path fill="none" stroke="black" d="M179.929,-47.9968C200.572,-52.3682 224.297,-57.3924 245.041,-61.7851"/>
<polygon fill="black" stroke="black" points="244.449,-65.2374 254.958,-63.8851 245.9,-58.3893 244.449,-65.2374"/>
<text text-anchor="middle" x="217" y="-63.8" font-family="Times,serif" font-size="14.00">deploy</text>
</g>
<!-- CANCELED -->
<g id="node4" class="node"><title>CANCELED</title>
<path fill="none" stroke="black" d="M266.5,-0C266.5,-0 331.5,-0 331.5,-0 337.5,-0 343.5,-6 343.5,-12 343.5,-12 343.5,-24 343.5,-24 343.5,-30 337.5,-36 331.5,-36 331.5,-36 266.5,-36 266.5,-36 260.5,-36 254.5,-30 254.5,-24 254.5,-24 254.5,-12 254.5,-12 254.5,-6 260.5,-0 266.5,-0"/>
<text text-anchor="middle" x="299" y="-14.3" font-family="Times,serif" font-size="14.00">CANCELED</text>
</g>
<!-- SCHEDULLED&#45;&gt;CANCELED -->
<g id="edge4" class="edge"><title>SCHEDULLED&#45;&gt;CANCELED</title>
<path fill="none" stroke="black" d="M179.568,-29.3224C185.773,-28.4906 192.025,-27.6952 198,-27 212.912,-25.265 229.109,-23.6788 244.038,-22.3376"/>
<polygon fill="black" stroke="black" points="244.485,-25.8119 254.14,-21.4494 243.872,-18.8388 244.485,-25.8119"/>
<text text-anchor="middle" x="217" y="-30.8" font-family="Times,serif" font-size="14.00">cancel</text>
</g>
<!-- REMOVED -->
<g id="node3" class="node"><title>REMOVED</title>
<path fill="none" stroke="black" d="M434,-55C434,-55 494,-55 494,-55 500,-55 506,-61 506,-67 506,-67 506,-79 506,-79 506,-85 500,-91 494,-91 494,-91 434,-91 434,-91 428,-91 422,-85 422,-79 422,-79 422,-67 422,-67 422,-61 428,-55 434,-55"/>
<text text-anchor="middle" x="464" y="-69.3" font-family="Times,serif" font-size="14.00">REMOVED</text>
</g>
<!-- DEPLOYED&#45;&gt;REMOVED -->
<g id="edge3" class="edge"><title>DEPLOYED&#45;&gt;REMOVED</title>
<path fill="none" stroke="black" d="M343.253,-73C364.26,-73 389.65,-73 411.636,-73"/>
<polygon fill="black" stroke="black" points="411.794,-76.5001 421.794,-73 411.794,-69.5001 411.794,-76.5001"/>
<text text-anchor="middle" x="383" y="-76.8" font-family="Times,serif" font-size="14.00">remove</text>
</g>
<!-- i -->
<g id="node5" class="node"><title>i</title>
<ellipse fill="none" stroke="black" cx="18" cy="-37" rx="18" ry="18"/>
</g>
<!-- i&#45;&gt;SCHEDULLED -->
<g id="edge1" class="edge"><title>i&#45;&gt;SCHEDULLED</title>
<path fill="none" stroke="black" d="M36.1914,-37C43.9893,-37 53.7358,-37 63.9077,-37"/>
<polygon fill="black" stroke="black" points="64.1651,-40.5001 74.1651,-37 64.1651,-33.5001 64.1651,-40.5001"/>
</g>
</g>
</svg>
