<?xml version="1.0" encoding="UTF-8" standalone="no"?>
<!DOCTYPE svg PUBLIC "-//W3C//DTD SVG 1.1//EN"
 "http://www.w3.org/Graphics/SVG/1.1/DTD/svg11.dtd">
<!-- Generated by graphviz version 2.36.0 (20140111.2315)
 -->
<!-- Title: catalogueStatus Pages: 1 -->
<svg width="446pt" height="47pt"
 viewBox="0.00 0.00 446.00 46.77" xmlns="http://www.w3.org/2000/svg" xmlns:xlink="http://www.w3.org/1999/xlink">
<g id="graph0" class="graph" transform="scale(1 1) rotate(0) translate(4 42.7668)">
<title>catalogueStatus</title>
<polygon fill="white" stroke="none" points="-4,4 -4,-42.7668 442,-42.7668 442,4 -4,4"/>
<!-- DRAFT -->
<g id="node1" class="node"><title>DRAFT</title>
<ellipse fill="none" stroke="black" cx="40" cy="-20.7668" rx="39.7935" ry="18"/>
<text text-anchor="middle" x="40" y="-17.0668" font-family="Times,serif" font-size="14.00">DRAFT</text>
</g>
<!-- PUBLISHED -->
<g id="node2" class="node"><title>PUBLISHED</title>
<ellipse fill="none" stroke="black" cx="215" cy="-20.7668" rx="59.2899" ry="18"/>
<text text-anchor="middle" x="215" y="-17.0668" font-family="Times,serif" font-size="14.00">PUBLISHED</text>
</g>
<!-- DRAFT&#45;&gt;PUBLISHED -->
<g id="edge1" class="edge"><title>DRAFT&#45;&gt;PUBLISHED</title>
<path fill="none" stroke="black" d="M79.8246,-20.7668C99.176,-20.7668 123.157,-20.7668 145.469,-20.7668"/>
<polygon fill="black" stroke="black" points="145.581,-24.2669 155.581,-20.7668 145.581,-17.2669 145.581,-24.2669"/>
<text text-anchor="middle" x="118" y="-24.5668" font-family="Times,serif" font-size="14.00">publish</text>
</g>
<!-- HIDDEN -->
<g id="node3" class="node"><title>HIDDEN</title>
<ellipse fill="none" stroke="black" cx="394" cy="-20.7668" rx="44.393" ry="18"/>
<text text-anchor="middle" x="394" y="-17.0668" font-family="Times,serif" font-size="14.00">HIDDEN</text>
</g>
<!-- PUBLISHED&#45;&gt;HIDDEN -->
<g id="edge2" class="edge"><title>PUBLISHED&#45;&gt;HIDDEN</title>
<path fill="none" stroke="black" d="M274.447,-20.7668C295.466,-20.7668 319.051,-20.7668 339.616,-20.7668"/>
<polygon fill="black" stroke="black" points="339.754,-24.2669 349.754,-20.7668 339.754,-17.2669 339.754,-24.2669"/>
<text text-anchor="middle" x="312" y="-24.5668" font-family="Times,serif" font-size="14.00">hide</text>
</g>
<!-- HIDDEN&#45;&gt;PUBLISHED -->
<g id="edge3" class="edge"><title>HIDDEN&#45;&gt;PUBLISHED</title>
<path fill="none" stroke="black" d="M360.82,-8.75605C351.641,-5.8775 341.54,-3.21821 332,-1.76681 310.512,1.50218 286.826,-1.23755 266.489,-5.55211"/>
<polygon fill="black" stroke="black" points="265.456,-2.19847 256.495,-7.85242 267.026,-9.0201 265.456,-2.19847"/>
<text text-anchor="middle" x="312" y="-5.56681" font-family="Times,serif" font-size="14.00">publish</text>
</g>
</g>
</svg>
